<svg width="160" height="160" viewBox="0 0 160 160" fill="none" xmlns="http://www.w3.org/2000/svg">
<path d="M82.8037 81.9667L122.993 79.9907C123.087 79.9862 123.087 79.8471 122.993 79.8426L82.8037 77.8734L80.8357 30.9619C80.8311 30.8616 80.6804 30.8616 80.6759 30.9619L78.7033 77.8734L35.6325 79.8266C35.5183 79.8312 35.5183 79.9998 35.6325 80.0044L78.7033 81.9645L80.6941 129.3C80.6964 129.377 80.8129 129.377 80.8174 129.3L82.8014 81.9645" fill="#002555"/>
<path d="M90.8535 89.7754V128.532H90.8558H121.027V123.174H96.4631V111.302H118.105V105.944H96.4631V95.1336H121.027V89.7754H90.8558H90.8535Z" fill="#002555"/>
<path d="M118.911 64.7617H108.749V36.8309H118.911V31.4727H92.9775V36.8309H103.14V64.7617H92.9775V70.12H118.911V64.7617Z" fill="#002555"/>
<path d="M43.5803 40.3112L63.9844 70.12H70.6351V31.4727H65.0255V61.1174L44.7492 31.4727H37.9707V70.12H43.5803V40.3112Z" fill="#002555"/>
<path d="M55.0896 93.7702C55.0896 93.7702 58.0668 93.7109 60.77 94.9029C64.0234 96.3388 66.2038 98.9757 67.2175 102.827H73.1102C71.5485 94.8345 66.7745 91.2586 63.0417 89.6199C59.0599 87.8718 55.1261 88.0176 55.101 88.0176C48.7106 88.0176 43.8385 90.16 40.6079 94.3833C37.8499 97.9889 36.391 103.062 36.3818 109.052C36.391 115.044 37.8499 120.115 40.6079 123.72C43.8385 127.944 48.7106 130.084 55.101 130.086C55.1238 130.086 59.0576 130.232 63.0417 128.484C66.7745 126.845 71.5485 123.269 73.1102 115.276H67.2175C66.2038 119.128 64.0234 121.767 60.77 123.201C58.0691 124.393 55.0896 124.333 55.0896 124.333C48.3111 124.333 45.9458 121.241 45.1672 120.224C43.1832 117.63 42.1307 113.767 42.1238 109.052C42.1307 104.336 43.1832 100.473 45.1672 97.8794C45.9458 96.863 48.3111 93.7702 55.0896 93.7702Z" fill="#002555"/>
</svg>
